<svg xmlns="http://www.w3.org/2000/svg"  viewBox="0 0 100 100" width="50px" height="50px"><circle cx="79" cy="13" r="1" fill="#f1bc19"/><circle cx="50" cy="50" r="37" fill="#c0e5e4"/><circle cx="85" cy="15" r="4" fill="#f1bc19"/><circle cx="13" cy="29" r="2" fill="#00a5a5"/><circle cx="80" cy="78" r="2" fill="#fbcd59"/><circle cx="26" cy="76" r="4" fill="#fbcd59"/><circle cx="27" cy="87" r="2" fill="#00a5a5"/><circle cx="58.5" cy="80.5" r="2.5" fill="#fff"/><circle cx="23.029" cy="68.971" r=".971" fill="#fff"/><circle cx="85" cy="31" r="1" fill="#f1bc19"/><circle cx="78" cy="68" r="2" fill="#fff"/><circle cx="79" cy="34" r="1" fill="#fff"/><path fill="#f1bc19" d="M50,34c-1.103,0-2-0.897-2-2v-4c0-1.103,0.897-2,2-2s2,0.897,2,2v4C52,33.103,51.103,34,50,34z"/><path fill="#472b29" d="M50,26.4c0.882,0,1.6,0.718,1.6,1.6v4c0,0.882-0.718,1.6-1.6,1.6s-1.6-0.718-1.6-1.6v-4 C48.4,27.118,49.118,26.4,50,26.4 M50,25c-1.657,0-3,1.343-3,3v4c0,1.657,1.343,3,3,3s3-1.343,3-3v-4C53,26.343,51.657,25,50,25 L50,25z"/><path fill="#88ae45" d="M61,44c-1.103,0-2-0.897-2-2v-4c0-1.103,0.897-2,2-2s2,0.897,2,2v4C63,43.103,62.103,44,61,44z"/><path fill="#472b29" d="M61,36.4c0.882,0,1.6,0.718,1.6,1.6v4c0,0.882-0.718,1.6-1.6,1.6s-1.6-0.718-1.6-1.6v-4 C59.4,37.118,60.118,36.4,61,36.4 M61,35c-1.657,0-3,1.343-3,3v4c0,1.657,1.343,3,3,3s3-1.343,3-3v-4C64,36.343,62.657,35,61,35 L61,35z"/><path fill="#ee3e54" d="M39,64c-1.103,0-2-0.897-2-2v-4c0-1.103,0.897-2,2-2s2,0.897,2,2v4C41,63.103,40.103,64,39,64z"/><path fill="#472b29" d="M39,56.4c0.882,0,1.6,0.718,1.6,1.6v4c0,0.882-0.718,1.6-1.6,1.6s-1.6-0.718-1.6-1.6v-4 C37.4,57.118,38.118,56.4,39,56.4 M39,55c-1.657,0-3,1.343-3,3v4c0,1.657,1.343,3,3,3s3-1.343,3-3v-4C42,56.343,40.657,55,39,55 L39,55z"/><path fill="#78a0cf" d="M28,54c-1.103,0-2-0.897-2-2v-4c0-1.103,0.897-2,2-2s2,0.897,2,2v4C30,53.103,29.103,54,28,54z"/><path fill="#472b29" d="M28,46.4c0.882,0,1.6,0.718,1.6,1.6v4c0,0.882-0.718,1.6-1.6,1.6s-1.6-0.718-1.6-1.6v-4 C26.4,47.118,27.118,46.4,28,46.4 M28,45c-1.657,0-3,1.343-3,3v4c0,1.657,1.343,3,3,3s3-1.343,3-3v-4C31,46.343,29.657,45,28,45 L28,45z"/><path fill="#78a0cf" d="M72,54c-1.103,0-2-0.897-2-2v-4c0-1.103,0.897-2,2-2s2,0.897,2,2v4C74,53.103,73.103,54,72,54z"/><path fill="#472b29" d="M72,46.4c0.882,0,1.6,0.718,1.6,1.6v4c0,0.882-0.718,1.6-1.6,1.6s-1.6-0.718-1.6-1.6v-4 C70.4,47.118,71.118,46.4,72,46.4 M72,45c-1.657,0-3,1.343-3,3v4c0,1.657,1.343,3,3,3s3-1.343,3-3v-4C75,46.343,73.657,45,72,45 L72,45z"/><path fill="#88ae45" d="M61,64c-1.103,0-2-0.897-2-2V51c0-1.103,0.897-2,2-2s2,0.897,2,2v11C63,63.103,62.103,64,61,64z"/><path fill="#472b29" d="M61,49.4c0.882,0,1.6,0.718,1.6,1.6v11c0,0.882-0.718,1.6-1.6,1.6s-1.6-0.718-1.6-1.6V51 C59.4,50.118,60.118,49.4,61,49.4 M61,48c-1.657,0-3,1.343-3,3v11c0,1.657,1.343,3,3,3s3-1.343,3-3V51C64,49.343,62.657,48,61,48 L61,48z"/><path fill="#ee3e54" d="M39,51c-1.103,0-2-0.897-2-2V38c0-1.103,0.897-2,2-2s2,0.897,2,2v11C41,50.103,40.103,51,39,51z"/><path fill="#472b29" d="M39,36.4c0.882,0,1.6,0.718,1.6,1.6v11c0,0.882-0.718,1.6-1.6,1.6s-1.6-0.718-1.6-1.6V38 C37.4,37.118,38.118,36.4,39,36.4 M39,35c-1.657,0-3,1.343-3,3v11c0,1.657,1.343,3,3,3s3-1.343,3-3V38C42,36.343,40.657,35,39,35 L39,35z"/><path fill="#f1bc19" d="M50,74c-1.103,0-2-0.897-2-2v-4c0-1.103,0.897-2,2-2s2,0.897,2,2v4C52,73.103,51.103,74,50,74z"/><path fill="#472b29" d="M50,66.4c0.882,0,1.6,0.718,1.6,1.6v4c0,0.882-0.718,1.6-1.6,1.6s-1.6-0.718-1.6-1.6v-4 C48.4,67.118,49.118,66.4,50,66.4 M50,65c-1.657,0-3,1.343-3,3v4c0,1.657,1.343,3,3,3s3-1.343,3-3v-4C53,66.343,51.657,65,50,65 L50,65z"/><path fill="#f1bc19" d="M50,61c-1.103,0-2-0.897-2-2V41c0-1.103,0.897-2,2-2s2,0.897,2,2v18C52,60.103,51.103,61,50,61z"/><path fill="#472b29" d="M50,39.4c0.882,0,1.6,0.718,1.6,1.6v18c0,0.882-0.718,1.6-1.6,1.6s-1.6-0.718-1.6-1.6V41 C48.4,40.118,49.118,39.4,50,39.4 M50,38c-1.657,0-3,1.343-3,3v18c0,1.657,1.343,3,3,3s3-1.343,3-3V41C53,39.343,51.657,38,50,38 L50,38z"/></svg>